<svg width="35" height="35" viewBox="0 0 35 35" fill="none" xmlns="http://www.w3.org/2000/svg">
<path d="M23.4501 2.79999H11.55C6.71756 2.79999 2.80005 6.7175 2.80005 11.55V23.45C2.80005 28.2825 6.71756 32.2 11.55 32.2H23.4501C28.2825 32.2 32.2001 28.2825 32.2001 23.45V11.55C32.2001 6.7175 28.2825 2.79999 23.4501 2.79999Z" stroke="black" stroke-linecap="round" stroke-linejoin="round"/>
<path d="M17.5 24.0297C21.1063 24.0297 24.0297 21.1063 24.0297 17.5C24.0297 13.8938 21.1063 10.9703 17.5 10.9703C13.8938 10.9703 10.9703 13.8938 10.9703 17.5C10.9703 21.1063 13.8938 24.0297 17.5 24.0297Z" stroke="black" stroke-linecap="round" stroke-linejoin="round"/>
<path d="M25.5281 10.9703C26.555 10.9703 27.3875 10.1379 27.3875 9.11096C27.3875 8.08406 26.555 7.25159 25.5281 7.25159C24.5012 7.25159 23.6687 8.08406 23.6687 9.11096C23.6687 10.1379 24.5012 10.9703 25.5281 10.9703Z" stroke="black" stroke-linecap="round" stroke-linejoin="round"/>
</svg>
