<svg width="35" height="35" viewBox="0 0 35 35" fill="none" xmlns="http://www.w3.org/2000/svg">
<g clip-path="url(#clip0_417_26)">
<path d="M30.7178 5.75383C30.4679 4.81977 29.8692 4.03948 29.0323 3.5567L23.7126 0.485344C22.8757 0.00201549 21.9 -0.126117 20.9669 0.123805C20.0334 0.374273 19.2527 0.972937 18.7693 1.81037L12.0124 13.5137C11.5291 14.3505 11.4004 15.3257 11.6509 16.2593C11.9013 17.1928 12.5 17.9731 13.3374 18.4564L17.4774 20.8474C17.5634 20.897 17.6574 20.9205 17.7503 20.9205C17.9394 20.9205 18.1231 20.8228 18.2246 20.6471C18.3757 20.3854 18.286 20.0511 18.0243 19.9L13.8843 17.509C13.3 17.172 12.8819 16.6272 12.7072 15.9762C12.5326 15.3252 12.6223 14.6448 12.9598 14.0606L19.7167 2.35724C20.0543 1.77296 20.5985 1.35482 21.25 1.18015C21.9005 1.00608 22.582 1.09527 23.1657 1.43275L28.4854 4.50416C29.0692 4.84115 29.4868 5.38534 29.6614 6.03689C29.8361 6.68844 29.7464 7.3688 29.4088 7.95309L25.9278 13.9821C25.7767 14.2437 25.8664 14.578 26.1281 14.7292C26.3882 14.8798 26.7236 14.7906 26.8753 14.5289L30.3562 8.49996C30.8396 7.66308 30.9682 6.68789 30.7178 5.75383Z" fill="black"/>
<path d="M21.6608 16.5434L16.8105 13.7433C16.5487 13.5922 16.2144 13.6819 16.0633 13.9436C15.9122 14.2053 16.0019 14.5396 16.2636 14.6908L21.1139 17.4908C22.3192 18.1872 22.7337 19.7344 22.0373 20.9398L15.2804 32.6431C14.9434 33.2274 14.3992 33.645 13.7476 33.8196C13.0971 33.9937 12.4168 33.9051 11.8325 33.5676L6.51276 30.4962C5.30739 29.7998 4.89242 28.2526 5.58832 27.0472L9.06929 21.0183C9.22045 20.7566 9.1307 20.4223 8.86902 20.2711C8.60784 20.12 8.27298 20.2092 8.12188 20.4714L4.64086 26.5004C3.6438 28.228 4.2382 30.4455 5.96588 31.4436L11.2856 34.515C11.8432 34.8365 12.4616 35.001 13.0881 35.001C13.4026 35.001 13.7193 34.9599 14.0312 34.876C14.9648 34.626 15.745 34.0268 16.2278 33.19L22.9847 21.4867C23.9823 19.7595 23.3884 17.5421 21.6608 16.5434Z" fill="black"/>
</g>
<defs>
<clipPath id="clip0_417_26">
<rect width="35" height="35" fill="white"/>
</clipPath>
</defs>
</svg>
