<svg width="35" height="35" viewBox="0 0 35 35" fill="none" xmlns="http://www.w3.org/2000/svg">
<path d="M5.1218 21.875H11.9173C11.7534 20.493 11.6666 19.0232 11.6666 17.5C11.6666 15.9768 11.7534 14.507 11.9173 13.125H5.1218C4.63813 14.4934 4.37496 15.966 4.37496 17.5C4.37496 19.034 4.63813 20.5066 5.1218 21.875ZM5.73926 23.3333C7.47524 26.8265 10.7217 29.4366 14.6241 30.309C13.4879 28.7624 12.6177 26.3042 12.1242 23.3333H5.73926ZM29.8781 21.875C30.3618 20.5066 30.625 19.034 30.625 17.5C30.625 15.966 30.3618 14.4934 29.8781 13.125H23.0826C23.2465 14.507 23.3333 15.9768 23.3333 17.5C23.3333 19.0232 23.2465 20.493 23.0826 21.875H29.8781ZM29.2607 23.3333H22.8757C22.3822 26.3042 21.512 28.7624 20.3758 30.309C24.2782 29.4366 27.5247 26.8265 29.2607 23.3333ZM13.3939 21.875H21.606C21.7787 20.5077 21.875 19.0354 21.875 17.5C21.875 15.9646 21.7787 14.4924 21.606 13.125H13.3939C13.2212 14.4924 13.125 15.9646 13.125 17.5C13.125 19.0354 13.2212 20.5077 13.3939 21.875ZM13.6135 23.3333C14.375 27.6614 15.9221 30.625 17.5 30.625C19.0778 30.625 20.6249 27.6614 21.3864 23.3333H13.6135ZM5.73926 11.6667H12.1242C12.6177 8.69585 13.4879 6.23762 14.6241 4.69104C10.7217 5.56337 7.47524 8.17346 5.73926 11.6667ZM29.2607 11.6667C27.5247 8.17346 24.2782 5.56337 20.3758 4.69104C21.512 6.23762 22.3822 8.69585 22.8757 11.6667H29.2607ZM13.6135 11.6667H21.3864C20.6249 7.33859 19.0778 4.37501 17.5 4.37501C15.9221 4.37501 14.375 7.33859 13.6135 11.6667ZM17.5 32.0833C9.44581 32.0833 2.91663 25.5542 2.91663 17.5C2.91663 9.44585 9.44581 2.91667 17.5 2.91667C25.5541 2.91667 32.0833 9.44585 32.0833 17.5C32.0833 25.5542 25.5541 32.0833 17.5 32.0833Z" fill="black"/>
</svg>
