<svg width="35" height="35" viewBox="0 0 35 35" fill="none" xmlns="http://www.w3.org/2000/svg">
<path d="M24.0625 3.82812H10.9375C9.05198 3.82813 7.24368 4.57715 5.91041 5.91041C4.57715 7.24368 3.82813 9.05198 3.82812 10.9375V24.0625C3.82813 25.948 4.57715 27.7563 5.91041 29.0896C7.24368 30.4229 9.05198 31.1719 10.9375 31.1719H24.0625C25.948 31.1719 27.7563 30.4229 29.0896 29.0896C30.4229 27.7563 31.1719 25.948 31.1719 24.0625V10.9375C31.1719 9.05198 30.4229 7.24368 29.0896 5.91041C27.7563 4.57715 25.948 3.82813 24.0625 3.82812V3.82812ZM18.0469 30.0781V20.7812C18.0469 20.6362 17.9893 20.4971 17.8867 20.3946C17.7841 20.292 17.645 20.2344 17.5 20.2344H14.7656V16.9531H17.5C17.645 16.9531 17.7841 16.8955 17.8867 16.7929C17.9893 16.6904 18.0469 16.5513 18.0469 16.4062V12.0312C18.0469 11.306 18.335 10.6105 18.8478 10.0978C19.3605 9.58496 20.056 9.29688 20.7812 9.29688H25.1562V12.5781H22.9688C22.5336 12.5781 22.1163 12.751 21.8087 13.0587C21.501 13.3663 21.3281 13.7836 21.3281 14.2188V16.4062C21.3281 16.5513 21.3857 16.6904 21.4883 16.7929C21.5909 16.8955 21.73 16.9531 21.875 16.9531H25.1562V20.2344H21.875C21.73 20.2344 21.5909 20.292 21.4883 20.3946C21.3857 20.4971 21.3281 20.6362 21.3281 20.7812V30.0781H18.0469ZM30.0781 24.0625C30.0781 25.6579 29.4443 27.188 28.3162 28.3162C27.188 29.4443 25.6579 30.0781 24.0625 30.0781H22.4219V21.3281H25.7031C25.8482 21.3281 25.9873 21.2705 26.0898 21.1679C26.1924 21.0654 26.25 20.9263 26.25 20.7812V16.4062C26.25 16.2612 26.1924 16.1221 26.0898 16.0196C25.9873 15.917 25.8482 15.8594 25.7031 15.8594H22.4219V14.2188C22.4219 14.0737 22.4795 13.9346 22.5821 13.8321C22.6846 13.7295 22.8237 13.6719 22.9688 13.6719H25.7031C25.8482 13.6719 25.9873 13.6143 26.0898 13.5117C26.1924 13.4091 26.25 13.27 26.25 13.125V8.75C26.25 8.60496 26.1924 8.46586 26.0898 8.3633C25.9873 8.26074 25.8482 8.20312 25.7031 8.20312H20.7812C19.766 8.20313 18.7923 8.60644 18.0744 9.32436C17.3564 10.0423 16.9531 11.016 16.9531 12.0312V15.8594H14.2188C14.0737 15.8594 13.9346 15.917 13.8321 16.0196C13.7295 16.1221 13.6719 16.2612 13.6719 16.4062V20.7812C13.6719 20.9263 13.7295 21.0654 13.8321 21.1679C13.9346 21.2705 14.0737 21.3281 14.2188 21.3281H16.9531V30.0781H10.9375C9.34206 30.0781 7.81196 29.4443 6.68381 28.3162C5.55566 27.188 4.92188 25.6579 4.92188 24.0625V10.9375C4.92188 9.34206 5.55566 7.81196 6.68381 6.68381C7.81196 5.55566 9.34206 4.92188 10.9375 4.92188H24.0625C25.6579 4.92188 27.188 5.55566 28.3162 6.68381C29.4443 7.81196 30.0781 9.34206 30.0781 10.9375V24.0625Z" fill="black"/>
</svg>
