<svg width="35" height="35" viewBox="0 0 35 35" fill="none" xmlns="http://www.w3.org/2000/svg">
<path d="M29.5312 30.0781C28.8063 30.0773 28.1113 29.789 27.5986 29.2763C27.086 28.7637 26.7977 28.0687 26.7969 27.3437V26.25C26.7958 25.4528 26.5463 24.6758 26.0831 24.0271C25.6199 23.3783 24.9659 22.8901 24.2123 22.6303C25.3257 22.0163 26.2541 21.115 26.901 20.0204C27.5479 18.9257 27.8897 17.6777 27.8906 16.4062V15.3125C27.8786 13.9668 27.4975 12.6503 26.7889 11.5063C27.1456 10.472 27.2756 9.37307 27.1699 8.28412C27.0643 7.19518 26.7256 6.14172 26.1767 5.1953C26.1287 5.11217 26.0597 5.04313 25.9765 4.99514C25.8934 4.94714 25.7991 4.92187 25.7031 4.92186C24.4683 4.91919 23.2513 5.2164 22.1567 5.78795C21.0621 6.3595 20.1227 7.1883 19.4191 8.20311L15.5809 8.20298C14.8773 7.18822 13.9378 6.35948 12.8432 5.78795C11.7487 5.21643 10.5317 4.91922 9.29688 4.92186C9.20088 4.92187 9.10658 4.94714 9.02345 4.99514C8.94032 5.04313 8.87129 5.11217 8.8233 5.1953C8.27443 6.14172 7.93568 7.19518 7.83006 8.28412C7.72443 9.37307 7.8544 10.472 8.21114 11.5063C7.50248 12.6503 7.12139 13.9668 7.10938 15.3125V16.4062C7.11035 17.6777 7.45207 18.9257 8.09897 20.0204C8.74588 21.115 9.67433 22.0163 10.7877 22.6303C10.0341 22.8901 9.38013 23.3783 8.9169 24.0271C8.45366 24.6758 8.20417 25.4528 8.20312 26.25V27.3437C8.20232 28.0687 7.91397 28.7637 7.40135 29.2763C6.88873 29.789 6.1937 30.0773 5.46875 30.0781C5.32371 30.0781 5.18461 30.1357 5.08205 30.2383C4.97949 30.3408 4.92188 30.4799 4.92188 30.625C4.92188 30.77 4.97949 30.9091 5.08205 31.0117C5.18461 31.1142 5.32371 31.1719 5.46875 31.1719C6.48368 31.1707 7.45672 30.767 8.17439 30.0494C8.89205 29.3317 9.29574 28.3587 9.29688 27.3437V26.25C9.29768 25.525 9.58603 24.83 10.0986 24.3174C10.6113 23.8048 11.3063 23.5164 12.0312 23.5156H14.2188V29.5312C14.2179 30.2562 13.9296 30.9512 13.417 31.4638C12.9044 31.9765 12.2093 32.2648 11.4844 32.2656C11.3393 32.2656 11.2002 32.3232 11.0977 32.4258C10.9951 32.5283 10.9375 32.6674 10.9375 32.8125C10.9375 32.9575 10.9951 33.0966 11.0977 33.1992C11.2002 33.3017 11.3393 33.3594 11.4844 33.3594C12.4993 33.3582 13.4723 32.9545 14.19 32.2369C14.9077 31.5192 15.3114 30.5462 15.3125 29.5312V23.5156H19.6875V29.5312C19.6886 30.5462 20.0923 31.5192 20.81 32.2369C21.5277 32.9545 22.5007 33.3582 23.5156 33.3594C23.6607 33.3594 23.7998 33.3017 23.9023 33.1992C24.0049 33.0966 24.0625 32.9575 24.0625 32.8125C24.0625 32.6674 24.0049 32.5283 23.9023 32.4258C23.7998 32.3232 23.6607 32.2656 23.5156 32.2656C22.7907 32.2648 22.0956 31.9765 21.583 31.4638C21.0704 30.9512 20.7821 30.2562 20.7812 29.5312V23.5156H22.9688C23.6937 23.5164 24.3887 23.8048 24.9014 24.3174C25.414 24.83 25.7023 25.525 25.7031 26.25V27.3437C25.7043 28.3587 26.1079 29.3317 26.8256 30.0494C27.5433 30.767 28.5163 31.1707 29.5312 31.1719C29.6763 31.1719 29.8154 31.1142 29.9179 31.0117C30.0205 30.9091 30.0781 30.77 30.0781 30.625C30.0781 30.4799 30.0205 30.3408 29.9179 30.2383C29.8154 30.1357 29.6763 30.0781 29.5312 30.0781ZM8.20312 16.4062V15.3125C8.21689 14.1 8.58294 12.9177 9.25669 11.9096C9.31256 11.8355 9.34864 11.7483 9.36152 11.6564C9.3744 11.5644 9.36366 11.4707 9.33032 11.3841C8.99589 10.5211 8.84851 9.59703 8.89794 8.67287C8.94737 7.74871 9.19247 6.84557 9.61704 6.02323C10.6642 6.07233 11.6842 6.37246 12.5911 6.89832C13.498 7.42418 14.2652 8.16035 14.828 9.04479C14.8775 9.12205 14.9456 9.18562 15.0261 9.22965C15.1066 9.27368 15.1969 9.29675 15.2886 9.29673L19.7114 9.29686C19.8032 9.29687 19.8934 9.27378 19.9739 9.22973C20.0544 9.18568 20.1225 9.12208 20.172 9.04479C20.7348 8.16034 21.5019 7.42416 22.4088 6.8983C23.3157 6.37244 24.3358 6.07231 25.383 6.02323C25.8075 6.84558 26.0526 7.74871 26.1021 8.67287C26.1515 9.59703 26.0041 10.5212 25.6697 11.3841C25.6367 11.4705 25.626 11.5639 25.6387 11.6556C25.6515 11.7472 25.6871 11.8342 25.7424 11.9084C26.4167 12.9168 26.7831 14.0995 26.7969 15.3125V16.4062C26.7951 18.0011 26.1607 19.5302 25.0329 20.6579C23.9052 21.7857 22.3761 22.4201 20.7812 22.4219H14.2188C12.6239 22.4201 11.0948 21.7857 9.96705 20.6579C8.83929 19.5302 8.20493 18.0011 8.20312 16.4062V16.4062Z" fill="black"/>
</svg>
