<svg width="35" height="35" viewBox="0 0 35 35" fill="none" xmlns="http://www.w3.org/2000/svg">
<path d="M31.9813 8.66248C30.8744 9.12157 29.7063 9.41635 28.5141 9.53748C29.7136 8.79282 30.6298 7.66871 31.1172 6.34373C29.9494 7.03581 28.674 7.5275 27.3438 7.79842C26.8247 7.1979 26.1811 6.71759 25.4577 6.39083C24.7343 6.06408 23.9485 5.89871 23.1547 5.90623C22.3832 5.8932 21.6166 6.0332 20.8995 6.31815C20.1823 6.60309 19.5288 7.02733 18.9765 7.56634C18.4243 8.10536 17.9844 8.74847 17.6821 9.4585C17.3799 10.1685 17.2213 10.9314 17.2157 11.7031C17.1919 12.1418 17.2399 12.5814 17.3579 13.0047C15.0641 12.9359 12.8127 12.3691 10.7597 11.3435C8.7068 10.318 6.90144 8.8583 5.4688 7.0656C4.85954 7.90589 4.55128 8.92699 4.5938 9.96404C4.60243 10.9367 4.84555 11.893 5.30252 12.7517C5.75949 13.6105 6.41684 14.3463 7.2188 14.8969C6.30346 14.7583 5.41904 14.4623 4.60474 14.0219V14.2187C4.5241 15.5499 4.9386 16.8638 5.76849 17.9077C6.59837 18.9517 7.785 19.6518 9.10005 19.8734C8.5774 19.9976 8.03954 20.0455 7.50317 20.0156C7.11132 20.0379 6.71864 19.9898 6.3438 19.8734C6.7092 21.0411 7.43538 22.063 8.41798 22.7921C9.40059 23.5212 10.589 23.92 11.8125 23.9312C9.69536 25.5528 7.0964 26.4191 4.42974 26.3922C3.95503 26.4128 3.47983 26.3649 3.0188 26.25C6.05411 28.277 9.65296 29.2915 13.3 29.1484C24.161 29.1484 29.0938 20.1578 29.0938 12.4797V11.7031C30.2367 10.8776 31.2159 9.84652 31.9813 8.66248V8.66248Z" stroke="black" stroke-linecap="round" stroke-linejoin="round"/>
</svg>
