<svg width="35" height="35" viewBox="0 0 35 35" fill="none" xmlns="http://www.w3.org/2000/svg">
<path d="M0.102539 8.47656C0.102539 7.17773 0.991211 6.66504 2.08496 6.59668L7.17773 6.63086C7.48535 6.63086 7.75879 6.83594 7.86133 7.14355C9.02344 10.9033 10.459 13.2275 12.168 15.8594C12.2705 16.0645 12.4414 16.167 12.6123 16.167C12.749 16.167 12.8857 16.0986 12.9883 15.9277L13.0908 15.5518L13.125 9.63867C13.125 8.78418 12.7148 8.64746 11.7578 8.51074C11.3818 8.44238 11.1426 8.10059 11.1426 7.75879C11.1426 7.69043 11.1426 7.62207 11.1768 7.55371C11.6553 6.08398 13.1592 5.33203 15.2783 5.33203L17.1924 5.29785C18.7646 5.29785 20.2002 5.98145 20.2002 7.99805V15.7568C20.3369 15.8594 20.4736 15.9277 20.6445 15.9277C20.918 15.9277 21.2598 15.7568 21.5332 15.3125C23.3105 12.8174 25.3271 9.84375 25.6006 8.27148C25.6006 8.20312 25.6348 8.16895 25.6689 8.10059C26.0449 7.34863 27.002 6.83594 27.4121 6.69922C27.4805 6.66504 27.583 6.63086 27.7197 6.63086H33.0176L33.3594 6.66504C33.8721 6.66504 34.248 7.00684 34.4189 7.31445C34.7266 7.79297 34.6582 8.30566 34.6924 8.51074V8.75C34.1797 11.8604 30.625 15.3467 29.1211 17.6025C28.916 17.876 28.8135 18.1152 28.8135 18.3545C28.8135 18.5596 28.916 18.7646 29.0869 18.9697L34.0771 25.2588C34.3506 25.6348 34.4873 26.0791 34.4873 26.4551C34.4873 27.583 33.4277 28.2324 32.4023 28.335L31.8213 28.3691H26.626C26.5234 28.3691 26.4551 28.4033 26.3525 28.4033C25.7715 28.4033 25.293 28.0957 24.9512 27.7539C23.8574 26.4209 22.7979 25.0537 21.7383 23.7207C21.5332 23.4473 21.4648 23.4131 21.2598 23.2764C21.0205 24.2676 20.8154 25.293 20.5762 26.3184L20.4736 26.8994C20.3027 27.5146 19.8584 28.1641 19.0381 28.335L18.5596 28.3691H15.21C9.29688 28.3691 3.99902 19.9609 0.273438 9.46777C0.170898 9.19434 0.102539 8.81836 0.102539 8.47656ZM20.6445 17.3291C19.7559 17.3291 18.7646 16.8164 18.7646 15.8594V7.99805C18.7646 7.0752 18.3545 6.7334 17.2266 6.7334L15.2783 6.80176C14.1846 6.80176 13.5693 6.97266 13.0566 7.31445C13.8428 7.69043 14.5605 8.20312 14.5605 9.63867V15.6543C14.458 16.8506 13.4668 17.6367 12.5098 17.6367C11.8604 17.6367 11.2793 17.2607 10.9375 16.6455C9.39941 14.3213 8.10059 12.1338 6.97266 8.98926L6.66504 8.10059L2.11914 8.06641C1.50391 8.06641 1.57227 8.10059 1.57227 8.4082C1.57227 8.61328 1.60645 8.88672 1.64062 9.05762L2.3584 10.9717C6.08398 20.6104 10.7666 26.9336 15.21 26.9336H18.6279C19.1064 26.9336 19.0723 26.3525 19.1748 26.0107L19.8242 23.0029C19.9609 22.6953 20.0635 22.4219 20.3027 22.1826C20.5762 21.9092 20.8838 21.8066 21.1914 21.8066C21.8408 21.8066 22.4561 22.3193 22.8662 22.7979L25.7715 26.4893C26.0107 26.8652 26.2158 26.9336 26.3525 26.9336H31.9922C32.5391 26.9336 33.0176 26.7627 33.0176 26.4209C33.0176 26.3184 32.9834 26.1816 32.915 26.0791L27.959 19.8926C27.5488 19.3799 27.3779 18.8672 27.3779 18.3545C27.3779 17.8076 27.583 17.2607 27.9248 16.7822C29.3604 14.6289 32.4365 11.5527 33.1543 9.02344L33.2568 8.5791C33.2227 8.4082 33.2227 8.27148 33.1885 8.10059H27.8223C27.4805 8.2373 27.207 8.44238 27.002 8.71582L26.7969 9.36523C26.0107 11.5527 23.8574 14.5605 22.3193 16.6455C21.8066 17.124 21.2256 17.3291 20.6445 17.3291Z" fill="black"/>
</svg>
