<svg width="35" height="35" viewBox="0 0 35 35" fill="none" xmlns="http://www.w3.org/2000/svg">
<path d="M17.5 27.8578C21.0084 27.9461 24.5179 27.7301 27.9891 27.2125C28.555 27.0907 29.0861 26.8425 29.5426 26.4864C29.9991 26.1303 30.3691 25.6756 30.625 25.1563C30.625 25.1563 31.7188 22.6844 31.7188 17.5C31.7188 12.3156 30.625 9.84375 30.625 9.84375C30.3559 9.34006 29.9875 8.89618 29.5419 8.53899C29.0964 8.18179 28.583 7.9187 28.0328 7.76563C24.5466 7.25278 21.0224 7.04418 17.5 7.14219C13.9916 7.05395 10.4821 7.26986 7.01094 7.7875C6.44496 7.90931 5.91386 8.15755 5.45739 8.51364C5.00092 8.86973 4.63089 9.32444 4.375 9.84375C4.375 9.84375 3.28125 12.3156 3.28125 17.5C3.28125 22.6844 4.375 25.1563 4.375 25.1563C4.64407 25.6599 5.01253 26.1038 5.45808 26.461C5.90364 26.8182 6.41703 27.0813 6.96719 27.2344C10.4534 27.7472 13.9776 27.9558 17.5 27.8578V27.8578Z" stroke="black" stroke-linecap="round" stroke-linejoin="round"/>
<path d="M13.9781 21.0219V13.9781C13.9766 13.822 14.0175 13.6683 14.0964 13.5336C14.1753 13.3988 14.2893 13.2879 14.4262 13.2128C14.563 13.1376 14.7177 13.1009 14.8738 13.1067C15.0299 13.1124 15.1814 13.1603 15.3124 13.2453L21.1749 16.7672C21.3018 16.8428 21.4069 16.9501 21.4799 17.0786C21.5529 17.2071 21.5912 17.3523 21.5912 17.5C21.5912 17.6477 21.5529 17.7929 21.4799 17.9214C21.4069 18.0499 21.3018 18.1572 21.1749 18.2328L15.3124 21.7547C15.1814 21.8397 15.0299 21.8876 14.8738 21.8933C14.7177 21.8991 14.563 21.8624 14.4262 21.7872C14.2893 21.7121 14.1753 21.6012 14.0964 21.4664C14.0175 21.3317 13.9766 21.178 13.9781 21.0219V21.0219Z" stroke="black" stroke-linecap="round" stroke-linejoin="round"/>
</svg>
